<svg xmlns="http://www.w3.org/2000/svg" width="250" height="82" viewBox="0 0 250 82" fill="none" role="img" aria-label="bangala.js HTML-first framework">
  <rect x="0.5" y="0.5" width="249" height="81" rx="10" stroke="#f97316" stroke-opacity="0.12"/>
  <g transform="translate(28 20) scale(0.3818)">
    <ellipse cx="26" cy="104" rx="16" ry="8" fill="none" stroke="#f97316" stroke-width="2" stroke-opacity="0.55"/>
    <ellipse cx="54" cy="104" rx="16" ry="8" fill="none" stroke="#f97316" stroke-width="2" stroke-opacity="0.55"/>
    <rect x="18" y="52" width="44" height="52" rx="3" fill="none" stroke="#f97316" stroke-width="2"/>
    <rect x="31" y="76" width="18" height="28" rx="3" fill="#f97316" fill-opacity="0.15" stroke="#f97316" stroke-width="1.5"/>
    <path d="M12 54 C12 54 12 8 40 2 C68 8 68 54 68 54 Z" fill="none" stroke="#f97316" stroke-width="2"/>
    <path d="M16 54 Q40 50 64 54" stroke="#f97316" stroke-width="1.8" fill="none"/>
    <rect x="50" y="2" width="9" height="15" rx="2" fill="none" stroke="#f97316" stroke-width="1.8"/>
    <rect x="48" y="0" width="13" height="5" rx="2" fill="#f97316" fill-opacity="0.45" stroke="#f97316" stroke-width="1.5"/>
  </g>
  <text x="72" y="38" fill="#f0f0f8" font-family="system-ui, -apple-system, BlinkMacSystemFont, 'Segoe UI', sans-serif" font-size="24" font-weight="800" letter-spacing="-0.8">bangala<tspan fill="#f97316">.</tspan>js</text>
  <text x="72" y="55" fill="#3a3a55" font-family="ui-monospace, SFMono-Regular, Menlo, Monaco, Consolas, monospace" font-size="11" letter-spacing="1.5">HTML-FIRST FRAMEWORK</text>
</svg>
